<?xml version="1.0" standalone="no"?> <!DOCTYPE svg PUBLIC "-//W3C//DTD SVG 1.0//EN" "http://www.w3.org/TR/2001/REC-SVG-20010904/DTD/svg10.dtd" > <svg xmlns="http://www.w3.org/2000/svg" width="100%" height="100%">
<defs >
<font horiz-adv-x="624" ><font-face
    font-family="Luminari"
    units-per-em="1000"
    panose-1="2 0 5 5 0 0 0 2 0 4"
    ascent="983"
    descent="-356"
    alphabetic="0" />
<missing-glyph horiz-adv-x="674" d="M100 0V700H574V0H100ZM323 351L145 637V64L323 351ZM529 635L351 351L529 65V635ZM337 327L160 44H514L337 327ZM512 656H163L337 375L512 656Z" />
<glyph unicode=" " glyph-name="space" horiz-adv-x="227" />
<glyph unicode="!" glyph-name="exclam" horiz-adv-x="270" d="M119 122Q111 179 105 252T94 401T87 549T85 677Q86 680 105 685T149 694T194 701T219 703Q217 674 214 626T205 520T193 401T178 284T161 186T142 123Q139 117 129 116T119 122ZM128 81Q132 81 141
74T161 58T180 40T189 26Q189 22 181 12T163 -8T143 -26T128 -35Q125 -35 115 -28T94 -12T73 7T63 19Q62 24 71 34T92 54T114 72T128 81Z" />
<glyph unicode="&quot;" glyph-name="quotedbl" horiz-adv-x="332" d="M79 579Q76 577 70 577T58 578T48 582T44 587Q51 606 59 638T76 703T92 760T102 789Q106 791 118 792T144 793T170 793T186 790Q183 781 175 764T156 725T133 680T110 636T91 600T79 579ZM208
579Q205 577 199 577T187 578T177 582T173 587Q180 606 188 638T205 703T221 760T231 789Q235 791 247 792T273 793T299 793T315 790Q312 781 304 764T285 725T262 680T239 636T220 600T208 579Z" />
<glyph unicode="#" glyph-name="numbersign" horiz-adv-x="491" d="M273 0Q274 5 276 22T282 62T288 111T294 161T298 203T301 229H190Q189 221 187 203T182 161T176 111T171 62T166 22T164 0H113Q114 4 116 20T121 59T127 109T133 160T138 203T141 229Q136 229
123 229T94 229T66 229T49 227L53 285Q57 285 71 285T102 284T131 284T146 284L164 447Q159 447 146 447T118 447T90 447T72 445L78 502Q82 502 96 502T125 501T153 501T170 501Q171 505 172 520T176 555T181 599T186 643T189 678T191 696H245Q243 688 240 661T232
601T225 540T220 501H332Q333 510 336 539T342 600T348 661T351 696H406Q405 691 402 664T394 603T387 541T382 501Q385 501 397 501T422 501T448 501T464 502L461 445Q457 446 444 446T417 447T390 447T374 447L357 284Q361 284 372 284T396 284T420 284T437 285L434
227Q429 228 417 228T392 229T367 229T352 229Q351 221 349 203T345 160T339 110T334 62T330 22T328 0H273ZM325 447H213L196 284H307L325 447Z" />
<glyph unicode="$" glyph-name="dollar" horiz-adv-x="508" d="M325 387Q356 379 386 367T439 335T477 286T492 215Q492 175 473 138T424 70T355 19T277 -8Q277 -51 279 -80T287 -118Q279 -118 261 -121T230 -128Q234 -114 237 -84T245 -10Q171 -8 114 8T31 44Q36
53 43 66T57 94T69 125T74 155Q74 171 68 186T61 227Q63 233 67 235T75 237Q89 237 90 224T95 184Q98 164 109 142T139 98T186 59T246 32Q250 86 252 150T255 281Q221 290 186 300T121 327T72 371T53 442Q53 478 70 511T117 572T182 618T258 641Q256 677 254 701T247
733Q258 735 274 739T305 748Q301 741 299 713T295 643Q361 641 401 630T465 609Q476 625 484 638T508 651Q515 651 515 645Q515 643 514 642T509 639T500 630T486 612Q479 601 473 580T460 536T447 489T435 450Q429 473 418 497T392 543T357 579T312 599L292 606L285
398L325 387ZM278 140Q277 111 277 83T277 28Q278 27 284 27Q300 27 322 31T363 47T395 78T409 130Q409 181 377 217T283 274Q282 266 282 259T282 245L278 140ZM259 405Q259 425 260 451T261 506Q261 538 259 566T251 608Q232 607 213 602T177 585T151 556T140
515Q140 483 166 453T259 405Z" />
<glyph unicode="%" glyph-name="percent" horiz-adv-x="715" d="M351 498Q350 467 336 433T297 371T241 323T175 304Q151 304 129 315T89 346T62 396T52 462Q52 505 66 541T105 603T160 643T226 657Q259 657 282 644T321 609T344 558T351 498ZM285 464Q285 513
276 544T254 595T225 621T195 629Q175 629 161 618T136 589T121 547T115 500Q115 465 121 436T140 386T170 352T209 340Q231 340 245 351T268 381T281 421T285 464ZM698 188Q697 158 682 124T643 62T588 14T522 -5Q498 -5 476 5T437 36T409 86T399 152Q399 195
413 231T452 292T507 332T573 347Q606 347 629 334T668 299T691 248T698 188ZM632 154Q632 202 624 233T602 284T572 311T542 319Q522 319 508 308T483 279T468 237T462 190Q462 155 469 126T488 75T517 42T556 30Q578 30 592 41T615 71T628 111T632 154ZM655 681Q643
668 615 631T553 544T481 443T414 348Q398 325 376 295T330 233T282 169T236 109T197 58T172 22Q149 9 129 1T90 -9Q104 3 136 43T212 141T304 267T401 401Q428 439 458 482T515 564T560 632T583 673L655 681Z" />
<glyph unicode="&amp;" glyph-name="ampersand" horiz-adv-x="784" d="M165 302Q165 237 187 193T244 120T320 80T398 68Q447 68 488 84T559 131T605 207T622 310Q622 351 618 378T606 420T590 442T572 448Q574 448 554 442T499 425T421 400T332 369T242 336T165
302ZM687 495Q689 478 691 457T693 413Q693 342 668 267T594 129T475 26T317 -15Q294 -15 265 -10T206 6T147 37T96 87T60 158T46 254Q46 364 78 440T158 563T258 631T351 652Q435 652 474 621T514 527Q514 514 509 502T497 481T482 463T469 449Q475 452 495 459T539
475T583 490T610 500Q628 506 655 517T714 541T777 570T836 601Q835 574 824 559T794 534T747 515T687 495ZM374 423Q384 432 390 449T397 479Q397 514 387 537T361 575T323 596T280 602Q265 602 245 587T207 539T177 455T164 333Q189 339 219 349T278 372T333
397T374 423Z" />
<glyph unicode="&apos;" glyph-name="quotesingle" horiz-adv-x="213" d="M79 579Q76 577 70 577T58 578T48 582T44 587Q51 606 59 638T76 703T92 760T102 789Q106 791 118 792T144 793T170 793T186 790Q183 781 175 764T156 725T133 680T110 636T91 600T79 579Z" />
<glyph unicode="(" glyph-name="parenleft" horiz-adv-x="306" d="M276 -195Q211 -160 168 -112T98 -3T62 132T53 292Q55 378 67 453T108 592T180 704T291 788L299 769Q251 726 223 674T179 561T158 435T151 300Q149 226 151 160T167 33T207 -80T283 -180L276 -195Z" />
<glyph unicode=")" glyph-name="parenright" horiz-adv-x="306" d="M15 -179Q66 -131 95 -78T139 36T158 162T164 302Q165 371 163 437T148 563T108 676T34 771L42 789Q107 755 150 706T219 594T255 456T263 295Q262 209 249 135T208 0T134 -110T24 -194L15 -179Z" />
<glyph unicode="*" glyph-name="asterisk" horiz-adv-x="355" d="M146 356Q150 390 153 429T158 503Q128 480 101 458T49 414Q42 430 35 446T18 474Q44 489 77 503T141 536Q109 552 78 566T21 594Q30 608 39 623T56 657Q101 611 159 566Q159 603 158 642T153 716H213Q209
683 205 643T198 567Q211 575 227 586T258 610T286 635T309 657Q317 641 324 626T340 596Q312 582 279 567T214 536Q245 518 276 502T336 474Q328 461 318 445T303 414Q280 436 254 458T197 503Q196 489 196 469T198 428T201 388T204 356H146Z" />
<glyph unicode="+" glyph-name="plus" horiz-adv-x="510" d="M221 0Q222 12 222 42T223 108T223 176T223 226Q209 226 180 226T120 226T63 226T27 225V297Q43 296 70 296T127 295T182 295T223 295Q223 310 223 342T223 410T223 476T221 520H289Q289 508 289 477T288
411T288 343T288 295Q301 295 326 295T380 295T436 295T483 297V225Q467 226 440 226T384 226T328 226T288 226Q288 206 288 173T288 106T288 42T289 0H221Z" />
<glyph unicode="," glyph-name="comma" horiz-adv-x="215" d="M-13 -94Q-4 -90 10 -82T39 -63T66 -40T82 -15Q82 -12 78 -8T69 2T59 13T55 23Q55 29 65 39T89 60T116 78T135 86Q146 86 156 77T176 57T190 36T196 21Q196 17 185 7T157 -15T118 -42T75 -70T35 -93T6
-109Q0 -112 -6 -105T-13 -94Z" />
<glyph unicode="-" glyph-name="hyphen" horiz-adv-x="409" d="M333 343Q322 326 312 302T293 259Q251 262 222 262T166 262Q137 262 104 260T53 256Q63 276 74 300T97 345Q113 341 146 340T211 338Q224 338 240 338T274 338T306 340T333 343Z" />
<glyph unicode="." glyph-name="period" horiz-adv-x="212" d="M135 91Q140 90 151 80T175 57T196 32T205 16Q205 11 193 1T166 -19T136 -38T115 -46Q112 -46 101 -37T77 -15T56 8T46 24Q46 29 59 39T87 61T117 81T135 91Z" />
<glyph unicode="/" glyph-name="slash" horiz-adv-x="318" d="M-73 -109Q-60 -94 -34 -50T27 56T100 189T177 334Q205 386 238 450T302 575T354 681T380 745H441Q436 739 423 716T390 659T348 583T302 498T256 411T215 333Q198 299 175 256T128 167T79 76T36 -6T5
-71T-10 -109H-73Z" />
<glyph unicode="0" glyph-name="zero" horiz-adv-x="589" d="M38 153Q29 179 27 212T24 281Q25 315 30 348T43 413T62 470T88 514Q111 544 143 569T210 612T281 640T346 650Q401 650 442 626T510 562T550 468T563 356Q562 327 559 296T545 239Q527 189 493 143T418
62T333 6T250 -15Q215 -15 182 -3T120 31T71 84T38 153ZM135 336Q135 273 147 220T182 127T237 66T308 44Q345 44 371 68T413 129T437 213T446 302Q446 385 431 443T391 537T339 589T284 606Q248 606 221 583T175 523T146 438T135 343V336Z" />
<glyph unicode="1" glyph-name="one" horiz-adv-x="375" d="M131 31Q135 47 139 89T147 191T153 320T155 461Q155 502 153 532T145 577Q133 572 111 563T72 545Q68 545 64 551T59 565Q59 568 60 571Q79 577 110 586T174 607T237 631T286 655Q286 653 287 653T289
648Q284 640 279 614T271 552T265 473T261 388T258 307T257 242Q257 211 257 182T259 128T264 83T272 49Q274 42 282 37T300 27T323 20T344 17Q348 17 350 14T352 8Q352 -1 345 -1Q322 -2 298 -2T250 -2T207 -1T174 0Q146 0 118 -1T77 -5Q68 -5 68 3Q68 9 71 11T79
14Q95 16 112 20T131 31Z" />
<glyph unicode="2" glyph-name="two" horiz-adv-x="551" d="M499 -20Q489 -17 466 -15T412 -10T345 -5T273 -1T202 2T142 3Q117 3 101 2T74 0T54 -2T36 -5Q35 -5 32 -4T29 0Q29 3 28 7T26 14T28 22T40 31Q65 50 100 77T172 136T246 204T312 276T359 348T378 416Q378
450 370 482T344 538T302 577T244 592Q215 592 191 579T150 547T122 505T112 463Q112 458 111 456T105 453Q100 453 93 458T79 472T67 491T62 511Q62 540 88 560T166 606Q209 626 256 639T339 652Q371 652 398 640T446 604T478 549T490 476Q490 440 473 403T427
329T362 255T289 187T216 126T154 75Q164 71 204 65T307 59Q346 59 382 60T448 67T500 90T534 136Q535 137 538 138T544 138T549 132T549 121Q545 111 541 96T534 63T526 29T518 0Q513 -20 499 -20Z" />
<glyph unicode="3" glyph-name="three" horiz-adv-x="506" d="M291 380Q322 380 356 373T418 347T464 298T482 219Q482 189 470 163T439 114T396 72T346 37Q301 11 259 -3T181 -18Q127 -18 96 -9T64 14Q64 27 65 43T69 76T73 106T76 129Q77 138 80 140T87 142T94
137T97 129Q97 114 108 99T139 71T189 50T254 42Q279 42 298 52T331 81T351 123T359 176Q359 213 347 243T315 296T266 329T205 341Q199 341 188 340T165 336T144 332T132 330Q119 330 119 353Q119 357 122 358T127 362Q156 362 187 364T245 379Q258 385 269 398T289
429T303 466T309 506Q309 556 286 585T220 615Q199 615 179 606T143 582T118 549T108 513Q107 508 102 504T91 505Q84 510 71 527T58 572Q58 586 73 600T117 625T187 644T278 651Q303 651 328 646T374 627T407 593T420 540Q420 512 408 489T377 446T336 411T291
384V380Z" />
<glyph unicode="4" glyph-name="four" horiz-adv-x="573" d="M435 155Q435 141 435 122T437 84T442 49T450 24Q451 21 456 20T468 18T482 18T495 18Q508 17 508 5Q508 1 507 -1T505 -5Q498 -4 481 -3T445 -2T405 -1T372 0Q337 0 311 -4T273 -9Q268 -7 268 -1Q268
10 280 13Q289 15 300 16T316 26Q322 41 325 66T329 117T331 163T332 186L181 188Q156 188 131 188T84 186T43 185T12 184H7Q-6 184 -8 187L10 206Q31 229 61 263T125 339T193 424T258 510T313 587T350 647Q377 649 406 649T452 652Q450 638 448 610T444 545T441
467T438 386T436 312T435 254Q486 254 522 268T569 302Q575 298 577 295T577 281Q574 273 569 259T558 229T544 201T532 180Q527 180 515 180T487 181T458 182T435 183V155ZM339 559Q327 545 307 521T264 469T215 409T167 349T125 296T96 256Q104 253 120 252T157
250T200 249T244 249Q272 249 296 250T334 251Q334 256 335 279T337 335T338 405T339 477V559Z" />
<glyph unicode="5" glyph-name="five" horiz-adv-x="511" d="M53 119Q53 127 63 126T74 118Q74 109 86 97T120 73T170 54T232 44Q261 44 285 53T328 82T356 132T367 204Q367 286 327 328T220 371Q181 371 149 363T98 344Q92 340 89 338T84 333Q82 330 82 329Q77
329 72 332T67 339Q78 362 80 408T82 535Q82 568 80 587T74 617Q74 625 101 631T180 643Q188 642 208 642T255 641T313 640T375 639Q415 639 442 641T486 647T512 655T527 663Q529 665 532 663T535 659V657L519 636Q511 627 492 607T449 567Q435 567 419 567T379
566T319 566T230 565Q205 565 193 565T171 563Q169 554 168 534T165 490T164 444T163 409Q172 413 188 417T222 426T259 434T293 437Q321 437 354 430T414 405T460 353T479 266Q478 237 465 205T431 142T380 81T318 31T251 -4T184 -17Q168 -17 150 -17T113 -16T79
-12T52 -1L53 119Z" />
<glyph unicode="6" glyph-name="six" horiz-adv-x="562" d="M143 345Q162 365 186 386T237 423T294 450T353 461Q437 461 487 415T537 289Q537 256 531 229T513 180T487 140T455 103Q433 80 406 60T351 25T296 1T248 -8Q201 -8 162 10T95 63T50 143T34 247Q34
295 42 334T63 404T94 460T129 506Q155 536 192 566T268 623T341 674T395 713Q409 713 412 702T415 676Q415 662 412 654T400 641Q347 633 302 610T224 548T169 459T143 345ZM304 46Q352 46 386 97T421 240Q421 272 411 300T384 349T343 382T292 394Q266 394 239
384T190 356T154 314T139 260Q139 207 152 167T188 100T241 60T304 46Z" />
<glyph unicode="7" glyph-name="seven" horiz-adv-x="478" d="M268 550Q180 552 136 548T73 537Q61 533 55 523T45 499Q44 496 40 495T30 493T22 496T22 503Q33 527 42 553T58 602T72 638T87 651Q163 640 246 635T406 629Q444 629 469 631T517 637Q519 637 520
635T522 632Q522 628 521 625T513 616Q490 603 465 577T417 519T376 455T348 397Q331 355 312 304T276 200T248 99T236 15Q236 0 239 -4Q241 -6 238 -8T229 -8Q226 -7 211 -6T175 -5Q176 -5 166 -5T142 -7T115 -10T96 -15Q94 -17 91 -15T89 -9Q96 16 114 59T158
155T212 265T271 376T328 475T375 548L268 550Z" />
<glyph unicode="8" glyph-name="eight" horiz-adv-x="559" d="M536 202Q535 162 519 131T476 77T416 37T349 11T284 -4T229 -9Q192 -9 156 -1T90 24T42 69T24 135Q24 174 35 204T68 257T120 300T188 338Q164 349 144 360T110 387T87 422T78 469Q78 509 93 538T132
587T186 619T245 639T299 648T341 651Q367 651 392 645T437 626T469 591T481 541Q481 511 466 486T428 441T377 404T324 377Q356 365 393 353T462 321T515 274T536 202ZM374 492Q374 549 347 583T270 618Q232 618 212 590T191 519Q191 486 202 464T228 428T261
405T292 392Q304 396 318 403T345 421T365 450T374 492ZM423 159Q423 197 402 224T349 270T281 302T216 325Q198 316 183 301T156 268T137 227T130 182Q130 142 146 114T188 67T244 40T304 31Q356 31 389 62T423 159Z" />
<glyph unicode="9" glyph-name="nine" horiz-adv-x="543" d="M150 -53Q141 -53 131 -44T111 -23T94 3T83 27Q81 32 83 35T91 37Q100 32 118 29T154 26Q204 26 248 47T326 106Q342 124 355 144T379 189T395 248T404 324Q387 303 366 285T320 254T269 233T216 225Q186
225 154 236T94 268T49 322T31 396Q31 445 46 482T86 548T140 595T201 626T259 643T304 650H317Q362 650 399 640T464 606T506 541T522 436Q521 355 497 288T428 167Q404 138 366 101T288 29T211 -29T152 -53H150ZM410 409Q410 509 371 562T267 616Q244 616 222
604T182 570T154 515T143 443Q143 409 154 382T186 334T232 303T287 292Q319 292 342 303T380 332T402 370T410 409Z" />
<glyph unicode=":" glyph-name="colon" horiz-adv-x="248" d="M142 438Q147 437 158 427T182 404T203 379T212 363Q212 358 200 348T173 328T143 309T122 301Q119 301 108 310T84 332T63 355T53 371Q53 376 66 386T94 408T124 428T142 438ZM144 200Q149 199 160
189T184 166T205 141T214 125Q214 120 202 110T175 90T145 71T124 63Q121 63 110 72T86 94T65 117T55 133Q55 138 68 148T96 170T126 190T144 200Z" />
<glyph unicode=";" glyph-name="semicolon" horiz-adv-x="281" d="M177 437Q182 436 193 426T217 403T238 378T247 362Q247 357 235 347T208 327T178 308T157 300Q154 300 143 309T119 331T98 354T88 370Q88 375 101 385T129 407T159 427T177 437ZM37 6Q46 10
60 18T89 37T116 60T132 85Q132 88 128 92T119 102T109 113T105 123Q105 129 115 139T139 160T166 178T185 186Q196 186 206 177T226 157T240 136T246 121Q246 117 235 107T207 85T168 58T125 30T85 7T56 -9Q50 -12 44 -5T37 6Z" />
<glyph unicode="&lt;" glyph-name="less" horiz-adv-x="537" d="M510 -12Q494 -1 460 19T382 65T288 119T193 173T108 220T48 254V326Q70 338 107 359T188 404T279 455T371 507T451 554T510 589V501Q500 496 471 480T403 443T318 397T234 350T164 312T123 289Q133
283 160 268T223 233T302 189T383 143T456 103T510 75V-12Z" />
<glyph unicode="=" glyph-name="equal" horiz-adv-x="480" d="M459 331Q440 331 408 331T338 332T258 332T177 332T103 332T45 331V401Q65 400 97 400T169 399T250 398T332 398T405 399T459 401V331ZM459 136Q430 137 375 137T259 138T139 138T45 136V206Q88 204
143 204T256 203T366 203T459 206V136Z" />
<glyph unicode="&gt;" glyph-name="greater" horiz-adv-x="537" d="M509 254Q488 242 450 221T365 173T270 119T176 66T97 20T46 -12V75Q66 85 99 103T173 143T255 188T334 232T398 268T435 289Q424 295 394 311T324 350T240 396T155 442T86 480T46 501V589Q68
575 105 554T186 508T277 456T369 405T450 359T509 326V254Z" />
<glyph unicode="?" glyph-name="question" horiz-adv-x="389" d="M391 565Q390 529 372 499T326 441T268 388T209 338T164 288T145 234Q145 224 151 215T167 198T187 186T205 182Q211 182 211 176T207 167Q203 165 194 159T173 148T150 139T131 137Q126 138 114
142T89 154T66 173T56 198Q56 212 70 232T107 276T155 328T203 388T240 453T255 522Q255 576 228 596T160 616Q140 616 119 608T81 588T55 560T49 532Q51 526 48 523T39 522Q25 530 17 544T8 571Q8 577 20 588T50 614T93 642T142 668T190 687T233 695Q303 695 347
666T391 565ZM141 85Q145 85 154 78T174 62T193 44T202 30Q202 26 194 16T176 -4T156 -22T141 -31Q138 -31 128 -24T107 -8T86 11T76 23Q75 28 84 38T105 58T127 76T141 85Z" />
<glyph unicode="@" glyph-name="at" horiz-adv-x="673" d="M606 110Q599 93 579 71T527 29T454 -5T363 -19Q276 -19 214 12T112 93T53 201T34 314Q34 412 66 486T147 611T257 686T374 712Q434 712 487 693T581 637T645 544T669 416Q669 360 648 317T594 244T526
199T461 184Q439 184 429 209T414 278Q396 264 375 249T330 222T282 202T232 194Q210 194 197 210T184 247Q184 275 206 296T259 336T326 370T387 404Q377 439 359 457T321 476Q314 476 303 473T281 463T262 450T250 434Q242 434 238 437T231 445T229 454T228 459Q228
462 229 463Q242 471 261 481T303 501T349 516T396 523Q421 523 434 512T454 480T464 432T474 372Q488 296 499 268T530 239Q548 239 562 254T587 292T602 343T608 398Q608 445 594 494T550 584T476 651T372 677Q325 677 279 656T197 592T138 482T115 325Q115 265
133 211T184 114T262 47T363 22Q410 22 449 34T518 65T571 108T606 155V110ZM411 305Q410 311 409 321T405 342T401 363T394 382Q367 371 344 361T302 338T274 313T264 283Q264 266 272 256T295 245Q316 245 334 251T366 267T392 286T411 305Z" />
<glyph unicode="A" glyph-name="A" horiz-adv-x="637" d="M276 687Q260 687 230 688T165 691T99 696T46 703Q42 705 39 713T35 730Q35 739 43 744Q83 733 130 727T220 716T297 711T348 710Q387 710 428 712T504 717T562 723T590 729Q592 729 596 725T600 716Q600
705 590 700T562 692T518 688T460 685Q455 684 455 674Q455 651 462 598T481 478T507 337T536 198T563 83T585 15Q590 13 593 13T606 12Q619 12 628 13T643 14Q647 14 649 6T651 -5Q651 -12 644 -12Q639 -12 630 -11T605 -10T564 -8T499 -7Q486 -7 471 -8T441 -10T416
-12T401 -13Q398 -13 396 -9T394 0Q394 5 395 8T401 12Q410 13 425 13T440 21Q440 27 435 57T423 129T407 218T390 307Q372 310 345 312T287 314Q252 314 221 311T171 300Q166 278 160 254T149 204T139 155T135 109Q135 68 152 50T196 32Q222 32 228 33T240 35Q248
35 248 31Q248 29 244 25T232 15Q223 8 209 -2T171 -13Q168 -13 156 -12T125 -10T87 -7T49 -6Q24 -6 9 -7T-16 -9T-28 -11T-34 -12Q-36 -12 -37 -9T-39 -1Q-39 5 -34 6Q-24 10 -5 21Q15 33 30 61T66 139Q80 172 97 229T131 354T163 496T188 640L276 687ZM378 376Q373
401 367 438T353 513T340 586T329 638Q323 665 319 672T309 679Q299 679 288 663T265 619T240 556T217 483T196 408T180 341Q196 345 220 349T272 359T327 368T378 376Z" />
<glyph unicode="B" glyph-name="B" horiz-adv-x="735" d="M173 21Q150 8 115 -6T42 -20Q19 -20 9 -16T-1 0Q-1 4 0 9T4 17T9 22T15 20Q21 12 33 11T59 10Q80 11 97 24T122 61Q126 75 130 105T136 177T140 270T142 379Q142 509 135 581T117 665Q109 671 97 674T73
679T48 680T29 679Q22 678 18 683T14 693Q14 711 27 711Q34 711 52 710T93 707T143 704T190 703Q216 703 238 711T285 729T337 747T404 755Q451 755 492 747T563 723T610 680T628 619Q628 579 611 547T569 489T515 447T463 420Q500 417 544 408T626 379T689 327T715
247Q715 209 700 175T658 111T599 57T529 15T455 -11T385 -21Q366 -21 338 -18T279 -8T221 5T173 21ZM259 225Q260 173 262 150T266 115Q269 98 280 82T310 51T353 29T408 20Q440 20 468 31T516 65T549 126T561 215Q561 262 546 295T504 348T437 378T350 387Q322
387 297 387T260 385Q259 374 259 362T259 336V225ZM273 659Q271 646 269 623T265 570T262 504T259 430Q260 427 270 426T293 423T322 422T349 421Q368 421 382 422T406 427T426 436T444 449Q461 462 475 491T490 571Q490 607 480 634T454 680T418 708T375 717Q364
717 348 714T317 705T290 687T273 659Z" />
<glyph unicode="C" glyph-name="C" horiz-adv-x="646" d="M523 -5Q513 -5 496 -6T460 -7T420 -9T382 -10Q315 -10 251 10T138 74T58 186T27 351Q27 439 60 507T149 621T273 691T414 715Q430 715 457 713T512 708T561 702T589 695Q602 730 618 757T662 798Q670
801 680 799T690 789Q685 780 683 778T676 776Q664 776 653 765T631 737T614 697T602 651Q600 640 598 626T593 597T590 570T589 548Q589 543 585 540T577 536Q571 536 563 542Q559 567 547 592T512 637T456 669T376 681Q327 681 289 658T224 595T183 500T169 382Q169
295 186 228T235 113T309 42T403 17Q437 17 469 28T529 58T578 102T612 155Q614 159 622 161T631 159Q631 146 623 124T603 79T581 38T566 13Q563 6 559 -5T551 -31T544 -61T541 -92Q541 -108 537 -112T520 -116Q509 -116 510 -101T515 -65T523 -28T523 -5Z" />
<glyph unicode="D" glyph-name="D.alt" horiz-adv-x="798" d="M173 21Q150 8 115 -6T42 -20Q19 -20 9 -16T-1 0Q-1 6 2 14T10 23Q12 23 15 20Q21 12 33 11T59 10Q80 11 97 24T122 61Q126 75 130 105T136 177T140 270T142 379Q142 509 135 581T117 665Q106 674
90 677T56 680Q48 680 40 680T27 679Q21 679 18 683T14 693Q14 711 27 711Q34 711 52 710T93 707T143 704T190 703Q216 703 238 711T285 729T337 747T404 755Q502 755 572 727T688 652T754 543T776 415Q776 337 749 259T670 119T547 18T385 -21Q366 -21 338 -18T279
-8T221 5T173 21ZM408 20Q467 20 511 48T584 123T629 230T644 353Q644 420 628 485T577 602T493 685T375 717Q364 717 348 715T317 705T290 687T274 659Q271 646 269 623T264 570T260 504T259 430Q259 344 259 286T261 192T263 139T266 115Q269 98 280 82T310 51T353
29T408 20Z" />
<glyph unicode="E" glyph-name="E" horiz-adv-x="660" d="M618 -44Q616 -30 611 -15T587 1Q572 1 547 0T492 -4T434 -8T383 -10Q296 -10 229 15T116 84T46 189T22 325Q22 428 55 502T144 625T273 695T426 718Q450 718 478 717T531 713T575 708T602 703Q607 702
612 720T624 759T642 799T666 818Q683 813 690 807T683 791Q660 773 645 743T617 669Q612 656 607 632T597 578Q595 570 585 570T570 585Q565 599 551 616T514 650T459 676T387 687Q342 687 305 664T241 602T198 514T179 411Q187 409 212 407T268 404T326 403T368
403Q400 403 431 406T488 414T533 427T560 442Q564 448 571 447T582 442Q580 433 575 419T564 385T554 343T550 295Q548 285 539 289T527 300Q523 316 508 325T468 338T412 344T345 345Q277 345 236 344T177 342Q177 312 181 277T197 207T226 140T271 82T335 41T422
26Q469 26 505 37T566 65T606 100T628 132Q631 135 632 135Q636 135 641 132T647 124Q644 113 641 100Q636 75 636 43Q636 17 638 -8T645 -50Q635 -54 628 -54T618 -44Z" />
<glyph unicode="F" glyph-name="F" horiz-adv-x="608" d="M458 200Q444 203 427 205T391 208T354 209T319 210Q312 210 304 210T288 210T276 209T271 206Q271 180 271 146T273 77T277 13T283 -29Q285 -37 300 -40T334 -44Q342 -44 350 -44T370 -43Q381 -43 387
-48T393 -60Q393 -68 392 -74T370 -80Q362 -80 345 -79T307 -77T264 -77T225 -81Q185 -89 150 -99T87 -121T40 -142T13 -162Q9 -167 7 -167T2 -167Q0 -167 -8 -162T-16 -147Q-16 -142 0 -133T40 -113T88 -93T131 -78Q136 -71 139 -39T145 56T149 213T152 438Q152
474 151 511T148 581T142 638T132 672Q127 679 114 681T82 684H42Q37 684 31 684T17 685T6 690T1 698Q1 709 4 713T31 718Q41 718 56 717T86 716T117 714T145 713Q177 713 224 719T322 727Q359 728 397 728T469 729T527 730T561 733Q570 761 581 781T604 803Q609
803 617 800T626 790Q623 787 621 784Q617 778 617 775Q605 754 596 721T580 653T570 585T570 530Q567 515 558 515Q542 515 539 520T537 532Q539 540 540 552T541 573Q541 597 525 614T482 643T419 661T341 667Q330 667 312 667T284 658Q282 650 280 624T277 563T274
487T273 408T272 339T271 293Q291 292 309 292T346 292Q406 291 451 294T512 303Q521 306 526 311T535 323T542 333T550 338Q555 338 560 333T563 324Q557 313 552 294T544 251T538 202T535 155Q535 151 535 147T536 138Q536 135 532 134T523 132T514 133T510 137Q510
143 509 151T505 168T494 183T473 196L458 200Z" />
<glyph unicode="G" glyph-name="G" horiz-adv-x="766" d="M728 820Q742 820 746 814T751 793Q700 742 677 667T653 491Q653 488 648 485T638 481T627 479T622 485Q622 489 622 495T623 508Q623 532 607 563T563 622T498 670T417 690Q358 690 313 664T236 593T189
491T172 368Q172 296 191 233T246 122T330 46T439 18Q479 18 511 31T565 68T599 124T611 193Q611 223 602 253T577 308T540 348T494 364Q479 364 464 361T437 350T418 331T411 304Q411 292 415 282T425 264T437 252T447 248Q452 249 454 244T455 236Q450 230 421
222T352 213Q316 213 296 236T275 289Q275 308 294 327T346 362T423 388T517 398Q571 398 613 386T684 353T728 304T743 245Q743 197 715 150T641 65T536 4T413 -20Q317 -20 244 6T121 79T47 190T22 331Q22 414 56 487T149 615T288 701T461 733Q533 733 580 719T656
696Q660 706 667 724T684 762T705 797T728 820Z" />
<glyph unicode="H" glyph-name="H" horiz-adv-x="734" d="M623 -57Q625 -57 627 -63T627 -73Q623 -82 613 -93T586 -114T548 -131T502 -138Q482 -138 469 -131T448 -115T436 -95T432 -77Q432 -63 442 -49T469 -15T504 32T539 97T566 188T577 313Q577 426 527 486T398
546Q377 546 347 535T290 503T242 454T221 391Q220 373 220 349T219 298T219 243T219 188Q220 134 223 92T232 39Q240 27 259 25T296 23Q305 23 305 10Q305 -2 293 -2Q287 -2 273 -2T241 -1T206 -1T177 0Q151 0 122 0T67 -1T22 -3T-4 -5Q-7 -5 -8 -1T-8 8T-4 17T2
21Q22 21 42 24T68 32Q76 38 82 71T94 153T102 260T105 375Q105 488 104 552T99 647T86 686T63 693Q59 693 52 693T36 691T22 690T13 689Q11 689 11 693T10 701Q10 705 11 712T17 719Q22 719 30 719T55 719T100 718T175 717Q328 717 443 731T645 771Q654 774 656
772T659 763Q659 756 651 745T630 722T603 702T575 694Q558 694 533 695T479 697T418 698T355 699Q305 699 274 692T237 669Q228 648 226 607T224 485Q234 495 261 517T326 561T408 601T496 619Q538 619 577 604T646 561T694 498T712 419Q712 373 699 331T666 251T623
176T580 106T547 40T534 -24Q534 -44 546 -57T586 -71Q599 -71 609 -67T622 -57H623Z" />
<glyph unicode="I" glyph-name="I" horiz-adv-x="391" d="M174 0Q156 0 134 0T91 -1T52 -3T23 -6L7 -8Q2 -8 -1 -3T-5 8Q-5 12 -1 16T10 21Q52 21 77 26T107 39Q113 51 119 92T131 189T139 306T142 419Q142 476 142 514T141 578T140 616T139 636Q138 668 130 678T101
691Q86 693 66 692T37 692Q30 693 25 694T20 705Q20 715 25 718T36 722Q44 722 87 719T212 715Q265 715 302 717T354 722Q361 722 367 721T374 711Q374 694 351 692Q343 692 333 691T314 689T296 686T284 683Q279 681 275 647T267 561T260 451T256 342Q255 304
255 254T255 157T260 76T269 37Q273 34 284 32T310 27T340 23T369 22Q380 22 383 20T386 10Q386 1 379 -3T363 -7Q357 -7 345 -6T312 -4T259 -1T180 0H174Z" />
<glyph unicode="J" glyph-name="J" horiz-adv-x="363" d="M133 -97Q104 -149 61 -174T-26 -200Q-52 -195 -52 -180Q-52 -167 -42 -167Q-38 -167 -32 -168T-13 -169Q42 -169 73 -130T115 -30Q127 43 132 128T140 326Q140 501 135 586T121 684Q114 686 102 687T76
689T52 690T35 691Q31 691 28 693T24 702Q24 721 36 724Q38 724 51 722T87 718T140 713T204 711Q274 711 312 715T361 721Q364 721 366 717T368 708T365 697T356 692Q344 691 329 689T300 683Q289 680 282 658T270 602T263 523T260 430V385Q260 339 260 295T261
210T261 135T262 75Q262 20 252 -4T225 -38T187 -54T144 -77L133 -97Z" />
<glyph unicode="K" glyph-name="K" horiz-adv-x="738" d="M371 23Q399 23 399 8Q399 -6 376 -6Q370 -6 353 -5T316 -3T275 -1T242 0Q177 0 135 -4T65 -12T23 -20T-2 -24Q-5 -24 -10 -22T-15 -16Q-15 -9 -14 1T-4 11Q6 11 25 12T65 17T103 25T126 37Q129 46 132
77T139 156T144 266T146 401Q146 471 146 520T145 603T140 654T132 680Q87 683 63 689T38 701Q35 704 35 709Q35 720 59 720Q71 720 115 716T218 712Q262 712 289 713T334 717T362 721T382 723Q396 723 396 711Q396 703 388 699T367 692T340 689T313 687Q305 686
297 685T284 681Q279 679 275 645T268 561T264 454T262 349Q309 375 353 410T442 496Q459 515 477 535T512 578T538 625T548 673Q548 680 544 686Q532 686 519 685T495 681T475 677T463 675Q448 675 448 690Q448 701 453 710T470 720Q481 722 508 719T579 716H664Q674
716 683 716T701 718Q710 719 718 719Q735 719 735 709Q735 706 734 705Q721 690 696 665T638 612T570 552T501 492T438 439T391 400Q416 405 430 405Q481 405 520 386T586 335T626 265T640 187Q640 178 639 168T632 150Q647 118 664 78T704 3T756 -59T825 -89Q836
-89 851 -84T879 -72Q882 -72 885 -78T889 -90Q889 -105 876 -115T848 -125Q821 -125 785 -112T713 -74T644 -16T589 59Q585 66 575 88T549 139T511 203T464 266T407 318T343 348Q323 347 303 333T262 296V252Q262 217 263 182T265 118T270 67T278 39Q287 29 310
26T357 23H371Z" />
<glyph unicode="L" glyph-name="L" horiz-adv-x="593" d="M65 686Q39 687 33 691T26 701Q26 708 28 713T39 720Q50 719 72 717T133 712H193Q237 713 275 717T343 726T393 736T421 745H422Q423 745 423 745T425 746Q435 746 435 725Q435 716 417 710T374 700T327
691T296 682Q290 672 286 628T279 523T275 394T273 269Q273 177 275 120T285 56Q288 55 296 55Q305 55 317 56T343 59T368 63T390 66Q413 69 439 73T492 84T540 101T579 126Q580 128 580 128T582 128Q586 132 591 131T599 126T604 116T601 107Q592 100 584 86T568
56T556 26T550 4Q558 -1 567 -10T577 -32Q577 -36 575 -42T564 -49Q562 -49 557 -48T552 -39Q552 -30 560 -26Q556 -24 549 -19T535 -12Q517 -9 498 -6T457 -2T406 1T343 2Q262 2 206 -2T110 -12T46 -21T5 -26Q-9 -26 -9 -14Q-9 -7 -6 1T8 8Q20 7 39 9T78 15T112
23T130 32Q134 40 138 70T146 145T151 249T153 372Q153 460 152 517T148 608T143 658T137 682L65 686Z" />
<glyph unicode="M" glyph-name="M" horiz-adv-x="1101" d="M620 49Q626 25 662 19Q671 18 671 9Q671 4 666 0T653 -4Q638 -4 613 -2T542 0Q505 0 477 -2T443 -6Q438 -6 436 -3T434 4T435 12T440 16Q447 17 454 20T467 28Q470 31 474 60T482 136T488 246T491 377Q491
435 491 485T486 566Q477 632 444 667T367 703Q328 703 290 682T222 619T174 516T155 375Q155 288 174 224T226 116T299 51T386 29Q388 29 391 29T397 30Q401 32 402 30T402 25T400 18T396 13Q386 6 368 1T318 -5Q265 -5 213 19T119 88T52 194T26 332Q26 439 57
515T141 639T265 709T416 732Q445 732 469 726T511 712T540 695T556 683Q564 689 588 697T644 713T710 726T772 732Q848 730 905 707T1001 646T1059 557T1079 449Q1079 342 1051 259T974 117T863 29T731 -2Q725 -2 723 2T721 12T725 20T731 23Q736 21 739 21T747
21Q788 21 824 49T887 126T929 243T945 391Q945 540 900 623T759 706Q730 706 705 694T662 663T632 618T617 567Q612 532 611 455T609 269Q608 189 610 130T620 49Z" />
<glyph unicode="N" glyph-name="N" horiz-adv-x="813" d="M30 21Q41 21 53 21T72 24Q79 26 84 31T93 51T100 92T104 163T107 272T108 429Q108 504 106 554T100 634T90 678T73 691Q68 691 60 691T42 690T26 690T16 689Q14 689 13 693T12 701Q12 705 13 711T20 717H109Q152
717 180 719T233 726Q248 729 246 716Q245 710 244 696T242 666T239 636T238 614Q250 628 277 648T342 686T423 717T512 730Q572 730 623 715T710 669T767 592T788 482Q788 441 780 398T760 311T734 228T708 153T688 91T680 49Q680 38 690 32T727 25Q741 25 750
26T767 32Q771 34 775 28Q777 25 777 21Q777 16 772 7T759 -2Q751 -2 724 -2T666 -2T604 -3T557 -3Q542 -3 542 7Q542 13 543 14T546 16T552 18T562 26Q573 43 585 82T606 175T622 290T629 414Q629 479 614 528T573 610T513 659T441 676Q408 676 374 664T310 630T260
580T232 520Q229 506 227 471T224 390T223 293T222 196Q222 167 223 141T226 93T230 56T234 37Q238 28 243 25T271 21Q281 21 286 22T300 23Q307 23 309 18T311 8Q311 6 308 2T299 -2Q293 -2 279 -2T246 -1T211 -1T183 0Q157 0 130 0T78 -1T36 -3T11 -5Q5 -5 5
3Q5 8 8 14T17 21H30Z" />
<glyph unicode="O" glyph-name="O" horiz-adv-x="814" d="M420 23Q475 23 517 50T587 123T630 228T644 353Q644 432 625 495T574 603T498 670T406 694Q351 694 308 670T234 602T187 500T171 370Q171 281 192 216T247 108T327 44T420 23ZM393 -14Q315 -14 248 9T130
76T51 185T22 331Q22 421 56 494T146 619T274 699T423 728Q496 728 563 707T681 644T762 541T792 400Q792 325 762 251T679 118T553 23T393 -14Z" />
<glyph unicode="P" glyph-name="P" horiz-adv-x="674" d="M219 302Q224 288 254 276T332 263Q376 263 412 279T475 329T516 410T531 523Q531 570 517 608T479 674T421 716T350 731Q329 731 309 726T272 713T245 697T232 681Q230 675 229 651T226 593T223 517T221
435T220 360T219 302ZM100 300Q100 422 98 499T92 619T82 679T67 695Q64 695 55 695T36 694T17 694T9 697Q9 700 9 708T13 719Q18 720 35 720T74 719T121 718T165 717T197 717T209 719Q213 719 228 725T267 740T321 754T385 761Q510 761 581 709T652 564Q652 486
621 425T540 320T426 253T297 230Q277 230 254 232T219 239Q219 214 219 174T220 94T224 22T232 -21Q235 -28 244 -29T266 -31T290 -29T312 -27Q315 -28 316 -31T317 -39T316 -47T312 -51Q293 -51 269 -55T217 -67T162 -85T109 -106Q85 -116 49 -137T-23 -180T-89
-218T-131 -234Q-136 -234 -142 -230T-153 -221T-157 -212T-146 -205Q-121 -201 -87 -185T-21 -150T35 -114T67 -89Q72 -84 77 -45T88 51T96 174T100 300Z" />
<glyph unicode="Q" glyph-name="Q" horiz-adv-x="789" d="M867 -131Q867 -151 860 -176T841 -223T810 -261T770 -276Q758 -276 747 -270T735 -252Q735 -241 742 -235T757 -229Q763 -229 765 -231T768 -238T769 -245T773 -252Q787 -251 799 -241T811 -209Q811 -188
796 -162T746 -110T652 -65T508 -35Q485 -30 461 -25T414 -16Q407 -17 401 -17T387 -17Q308 -17 242 10T129 86T56 202T29 351Q29 429 61 498T148 619T273 702T419 733Q487 733 548 709T655 639T728 530T755 387Q755 330 737 275T689 173T620 87T538 26Q555 23
587 20T659 13T738 2T812 -14T866 -38T887 -71Q887 -83 882 -97T867 -123V-131ZM411 22Q450 22 485 43T548 105T592 203T608 334Q608 420 590 486T542 597T469 665T379 688Q337 688 301 668T237 607T195 507T180 367Q180 273 205 208T267 101T342 41T411 22Z" />
<glyph unicode="R" glyph-name="R" horiz-adv-x="752" d="M254 219Q254 168 256 120T267 41Q285 30 307 28T350 24T383 20T397 7Q397 2 392 -1T376 -5Q347 -6 297 -3T183 1Q101 1 60 -4T10 -10Q3 -10 -2 -7T-7 3Q-7 16 5 17T50 23Q72 25 86 28T114 37Q120 59 124
82T131 139T135 225T137 358Q137 432 136 483T133 569T128 624T122 655Q109 664 88 666T47 670T13 675T-2 689Q-2 702 14 702Q32 702 75 698T182 693Q192 693 198 696Q208 701 230 710T281 728T342 744T406 751Q456 751 501 740T579 705T633 648T653 569Q653 525
633 488T581 419T513 366T444 330Q485 330 521 322T587 298T636 260T662 210Q662 196 660 192T650 177Q670 145 694 102T749 19T817 -48T901 -76Q910 -76 921 -75T943 -71T963 -62T976 -46Q980 -43 984 -43Q989 -43 990 -48T993 -58Q973 -103 894 -103Q854 -103
818 -90T748 -56T684 -6T626 52Q606 74 580 107T523 174T461 239T396 287Q381 294 362 297T326 302T293 304T270 304Q264 304 260 304T254 303V219ZM271 640Q266 621 263 587T258 513T255 429T254 346Q264 338 292 337T354 336Q383 336 402 341T439 359Q449 366
461 382T485 420T505 469T513 528Q513 573 503 608T476 669T436 708T387 722Q373 722 356 717T321 702T291 682T274 657L271 640Z" />
<glyph unicode="S" glyph-name="S" horiz-adv-x="586" d="M15 248Q13 248 11 248T8 252Q8 253 10 259T19 272T34 284T56 290Q72 290 82 282T98 258T106 224T108 182Q111 158 130 133T178 88T241 55T307 41Q383 39 418 73T453 162Q453 207 436 235T391 280T326
307T253 327T179 347T115 377T69 426T52 505Q52 551 72 592T131 665T223 715T347 734Q413 734 460 721T532 701Q537 709 543 719T556 739T573 754T594 761Q603 761 608 756T614 745Q612 740 606 737T595 731Q564 715 544 657T520 513Q519 511 515 510T506 509Q498
509 495 510Q492 540 477 571T436 627T371 669T283 685Q253 685 229 677T189 654T164 621T155 585Q155 543 189 509T292 457Q335 446 381 433T466 396T529 338T554 249Q554 196 530 148T465 62T374 3T270 -19Q229 -19 190 -14T118 -1T60 15T23 30Q32 46 41 64T59
102T73 143T79 189Q79 224 69 242T44 260Q34 260 30 256T20 244L15 248Z" />
<glyph unicode="T" glyph-name="T" horiz-adv-x="765" d="M393 704Q495 704 554 709T646 722T690 740T705 760Q707 765 715 765Q725 765 725 760Q723 758 719 745T708 714T694 674T681 633T671 598T667 578Q665 578 662 578T656 577Q647 577 647 583Q647 588 648
595T649 607Q649 612 648 614Q643 624 615 629T549 636T472 638T408 639Q370 639 333 618T266 556T218 458T199 325Q199 260 213 205T255 109T321 45T409 22Q456 22 491 39T551 85T587 149T600 223Q600 250 594 275T574 319T541 350T493 362Q451 362 434 344T417
304Q417 285 428 271T457 256Q468 256 468 248Q468 245 465 242Q460 235 437 228T382 221Q343 221 318 241T293 291Q293 310 311 328T360 360T436 383T531 392Q576 392 614 383T679 358T723 318T739 265Q739 221 711 172T634 81T519 12T376 -15Q298 -15 238 7T136
70T72 166T50 288Q50 338 65 382T104 464T157 533T213 586T264 622T298 638Q264 637 226 635T152 630T90 621T53 607Q42 599 35 586T23 559Q15 559 10 561T2 573Q11 585 21 611T42 665T60 718T71 749Q75 751 80 751Q84 751 88 749Q85 737 85 730Q85 720 95 717Q124
709 167 707T268 704H393Z" />
<glyph unicode="U" glyph-name="U" horiz-adv-x="813" d="M300 696Q286 691 265 667T223 603T187 506T170 381Q169 301 185 238T230 131T300 64T392 41Q443 42 480 61T536 101Q573 141 583 230T594 449Q594 548 592 605T582 675Q581 679 568 681T538 684T504 685T479
684Q471 683 469 689T467 702Q467 707 470 712T479 719Q523 718 574 715T669 712Q704 712 735 713T800 717Q809 715 809 703Q809 690 800 688T779 687T753 688T732 681Q727 669 722 634T714 546T708 426T705 281Q705 197 706 145T712 62T722 18T737 0Q748 -5 758
-9T783 -13Q789 -13 796 -13T803 -17Q803 -36 776 -36Q745 -36 721 -23T689 2Q681 1 668 0T640 -3T614 -5T597 -6Q589 -6 584 -5T577 5T573 31T572 79Q532 41 474 15T331 -13Q267 -10 212 11T117 72T53 171T31 308Q32 359 51 415T96 522T151 611T197 666Q167 665
138 664T84 658T44 646T23 625Q23 623 18 623Q15 623 13 624Q13 635 13 645T16 670Q18 683 19 692T26 713Q30 723 36 723T54 722Q63 721 85 719T134 716T189 713T238 711Q260 711 270 712T300 715V696Z" />
<glyph unicode="V" glyph-name="V" horiz-adv-x="766" d="M712 713Q724 713 739 713T767 714T790 715T803 716Q820 716 820 706Q820 697 813 693T797 687T777 685T761 681Q715 593 672 507T588 342T513 197T449 81T399 4T367 -24Q362 -21 357 -15T347 3Q332 34
313 78T273 173T229 278T183 387L162 437Q145 479 129 520T100 595T76 654T58 686Q33 686 19 687T-2 689T-11 693T-13 699Q-13 706 -9 711T-1 716Q2 716 14 716T45 715T87 713T133 712Q220 712 259 715T306 719Q325 719 325 709Q325 707 324 704T319 696T304 689T275
686Q262 686 250 686T230 688Q230 681 241 645T269 557T309 444T354 326T397 221T433 148Q441 159 458 192T496 271T539 371T580 477T611 576T623 653Q623 663 622 674T612 687Q586 687 570 688T543 690T527 694T516 699Q513 703 513 711Q513 719 519 719H532Q543
718 569 717T646 713H712Z" />
<glyph unicode="W" glyph-name="W" horiz-adv-x="1001" d="M497 398Q466 317 435 243T374 117Q362 95 351 74T331 35T314 6T300 -8Q295 -11 289 -12T277 -14Q275 -14 271 -12T264 -2Q250 32 234 80T199 184T162 298T123 415Q109 460 97 506T73 592T52 659T36 694Q23
696 15 696T-4 696Q-7 696 -9 699T-11 707T-10 715T-7 719Q-3 719 9 719T39 718T77 717T116 716Q157 716 189 717T232 719Q243 719 244 710T229 695Q222 692 207 692T177 694Q178 678 187 639T210 547T241 435T277 319T313 217T344 144Q351 150 366 181T399 257T438
358T475 466Q463 506 453 544T433 615T417 669T403 697Q390 699 383 699T365 699Q361 699 360 702T358 710T357 719T359 723Q361 723 378 722T419 720T467 718T509 717Q557 717 584 719T616 722Q633 722 631 713T618 699Q603 694 593 695T576 696T566 689T562 661Q562
644 569 606T589 518T618 412T650 305T682 211T710 147Q716 152 731 182T767 258T808 360T848 471T877 577T889 661Q889 666 889 673T887 686T883 696T877 701Q865 701 857 701T841 700T828 700T813 699Q811 700 810 703T807 711T805 719T808 723Q817 723 843 722T929
720Q932 720 950 720T990 721T1030 722T1050 723Q1067 723 1064 714T1050 701Q1046 699 1040 699T1026 698T1012 696T1003 691Q978 629 945 552T875 395T804 244T741 121Q728 98 717 77T696 38T680 8T667 -6Q662 -8 655 -8T644 -9Q640 -9 637 -8T630 1Q617 34 602
79T569 177T534 286T497 398Z" />
<glyph unicode="X" glyph-name="X" horiz-adv-x="735" d="M256 24Q256 16 255 7T235 -2Q225 -1 214 0T186 1T147 2T89 2Q51 2 26 -2T-14 -15T-35 -37T-42 -69Q-42 -74 -46 -77T-65 -81Q-77 -81 -82 -78T-87 -66Q-87 -53 -79 -37T-51 -6T-3 19T67 29Q71 29 73 27Q72
39 71 51T69 75Q69 97 77 136T110 221T178 309T291 382Q280 405 265 433T232 493T196 554T161 609T131 651T109 675Q95 682 81 683T55 685T36 688T29 699Q29 705 32 708T40 713T50 715T57 716Q72 716 95 715T152 713Q258 713 309 718T365 723Q370 723 374 720T379
708Q379 699 370 695T348 689T319 687T290 687Q297 672 314 637T350 563T387 489T413 437Q444 451 471 472T518 520T549 581T561 652Q561 669 549 675T522 683T495 688T483 699Q483 715 492 717Q503 717 519 716T553 715T587 714T615 713Q631 713 642 713T665 714T687
716T715 719Q734 719 734 702Q729 700 725 699Q723 698 722 698T718 697Q716 696 715 696Q694 679 669 642T610 560T533 474T435 404Q446 385 463 352T502 279T547 198T593 122T634 62T666 31Q704 29 728 25T766 17Q775 15 775 12T776 5Q776 1 772 -4T760 -10Q753
-10 746 -9T731 -6Q700 -1 677 0T621 1Q584 1 547 -1T477 -9Q472 -9 470 -7T468 -2Q468 1 471 5T475 14Q475 17 474 19Q466 36 453 65T423 127T389 196T357 263T329 317T310 350Q290 343 269 324T231 272T202 196T190 94Q190 68 205 48T256 27V24Z" />
<glyph unicode="Y" glyph-name="Y" horiz-adv-x="736" d="M565 102Q551 86 528 67T474 30T408 0T334 -12Q265 -12 209 5T113 55T51 139T29 255Q29 307 40 357T69 451T106 533T144 599T175 643T191 663Q120 668 82 657T32 627Q26 616 16 619T12 645Q17 663 22 679T44
705Q50 709 57 711T74 714T100 715T138 715Q182 715 210 715T266 719Q267 718 267 713T267 705Q253 696 236 661T202 573T174 452T163 305Q163 234 182 185T232 104T303 59T385 44Q436 44 470 67T526 124T556 195T566 261Q566 398 567 480T566 609Q564 646 560
663T548 687Q545 690 537 690T518 690T498 688T480 685Q470 684 466 689T461 701T464 713T474 719Q495 719 511 719T542 718T573 717T611 717Q663 718 691 719T736 724Q748 726 750 716T751 699Q750 696 744 695T729 691T714 687T705 680Q698 666 695 630T689 545T686
438T684 320Q684 237 685 186T686 103T688 50T689 8Q689 -11 675 -35T637 -84T584 -133T524 -175T465 -205T416 -217Q371 -217 323 -210T229 -194T145 -178T81 -170Q64 -170 49 -173T33 -186Q31 -194 26 -189T20 -180Q20 -170 35 -154T70 -123T106 -98T125 -87Q158
-89 204 -98T299 -119T398 -140T485 -149Q516 -149 536 -132T559 -85Q560 -75 561 -50T563 5T564 61T565 102Z" />
<glyph unicode="Z" glyph-name="Z" horiz-adv-x="697" d="M680 49Q669 35 656 14T631 -29T610 -67T596 -89Q593 -93 589 -93T580 -93T572 -88T570 -81Q574 -76 576 -73T578 -64Q578 -54 544 -46T459 -30T347 -17T236 -8T151 -2T117 1Q86 1 59 -1T6 -10Q-2 -6 -5
-3T-9 4T-10 10T-10 17Q13 25 29 32T64 57Q92 79 118 114T170 193T224 284T281 377Q298 402 320 436T368 505T421 575T474 635Q468 640 451 641T400 643Q375 643 336 640T255 633T180 624T131 616Q112 611 101 605T83 594T70 584T57 580Q44 580 43 587Q43 593 46
596T55 604Q70 618 82 646T106 701T125 750T139 771Q146 771 149 767T152 760Q152 755 150 748T147 732Q147 727 167 722T221 713T301 705T398 702Q435 702 469 705T535 711T591 717T635 720Q643 720 645 712T648 697Q648 692 645 690T638 687T630 685T622 679Q608
663 589 636T546 572T497 491T444 399Q402 324 365 268T295 170T234 102T183 58Q190 56 212 52T267 44T340 37T423 34Q482 34 527 40T604 54T654 70T678 84Q685 90 691 87T700 74L680 49Z" />
<glyph unicode="[" glyph-name="bracketleft" horiz-adv-x="331" d="M370 -166Q339 -188 296 -199T203 -211Q153 -211 122 -207T84 -194Q84 -164 84 -112T85 0T85 121T86 231V316Q86 432 85 544T84 771Q95 780 120 787T177 799T244 806T309 809Q315 809 323 809T338
809T351 807T356 803Q356 790 347 787T323 783T290 782T254 775T219 753T193 706Q188 679 186 581T183 297Q183 113 184 15T191 -114Q204 -140 235 -150T300 -160Q320 -160 337 -157T367 -150L370 -166Z" />
<glyph unicode="\" glyph-name="backslash" horiz-adv-x="491" d="M409 -128Q403 -105 394 -75T369 0T332 104T275 249Q255 298 231 357T180 477T128 595T80 696T40 769T15 800Q31 799 45 800Q57 801 69 802T89 809Q91 798 104 760T138 670T183 557T229 440T270
338T298 269Q307 247 322 210T354 130T391 43T427 -38T457 -99T479 -128Q463 -125 449 -124Q437 -123 426 -123T409 -128Z" />
<glyph unicode="]" glyph-name="bracketright" horiz-adv-x="326" d="M267 284Q267 168 267 54T268 -175Q258 -183 234 -189T179 -200T114 -207T49 -209Q41 -209 33 -209T16 -209T3 -207T-2 -202Q-2 -190 7 -187T30 -183T63 -182T99 -175T133 -153T160 -107Q165
-80 167 19T169 303Q169 486 168 585T161 713Q149 739 117 749T52 759Q32 759 15 757T-13 749L-17 767Q12 786 63 796T165 807Q216 807 239 804T268 790Q268 760 268 709T268 598T267 478T267 368V284Z" />
<glyph unicode="^" glyph-name="asciicircum" horiz-adv-x="455" d="M393 285Q387 293 374 312T344 354T309 404T274 452T246 491T230 512Q223 507 210 490T179 451T143 402T108 353T78 311T59 285Q57 287 52 290T40 297T29 304T21 309Q29 316 46 337T87 387T135
451T183 517T225 576T254 618Q261 607 278 584T316 532T360 472T404 413T441 365T464 336Q459 333 450 326T429 311T407 296T393 285Z" />
<glyph unicode="_" glyph-name="underscore" horiz-adv-x="456" d="M456 -38Q405 -36 354 -35T251 -34Q188 -34 126 -35T0 -38V34Q51 32 101 31T203 30Q266 30 328 31T456 34V-38Z" />
<glyph unicode="`" glyph-name="grave" horiz-adv-x="317" d="M278 542Q278 537 272 531T260 524Q255 527 238 537T198 561T151 591T105 621T70 645T54 657Q54 662 61 671T76 690T93 706T105 713Q107 711 118 700T145 672T180 636T217 598T252 564T278 542Z" />
<glyph unicode="a" glyph-name="a" horiz-adv-x="550" d="M359 156Q356 173 353 193T347 231T342 262T338 279Q322 273 302 265T262 248T224 229T194 211Q171 196 159 181T147 145Q147 116 164 94T217 72Q236 72 256 79T294 95T325 113T343 127Q351 135 355 140T359
156ZM330 311Q324 342 316 366T296 407T267 432T225 441Q203 441 185 433T153 414T132 392T123 375Q122 367 114 367Q100 367 88 377T76 401Q76 409 78 413Q101 426 134 441T202 469T273 490T336 499Q378 499 400 487T434 453T447 402T452 338Q455 287 460 240T475
156T500 97T539 74Q550 74 563 78T588 87T609 98T622 106Q631 106 633 97Q633 92 631 88Q629 86 616 78T584 59T542 36T497 12T455 -6T425 -13Q412 -13 403 -3T386 25T374 66T365 114Q347 99 319 79T258 40T191 10T124 -3Q97 -3 77 5T44 28T24 60T17 99Q17 131
36 151T97 194Q116 204 150 220T219 254T285 286T330 311Z" />
<glyph unicode="b" glyph-name="b" horiz-adv-x="594" d="M13 719Q13 741 23 745T46 749Q80 749 107 749T157 749T199 752T236 761Q244 764 244 758T245 747Q245 741 239 738T226 732T211 729T202 728Q199 718 195 683T187 599T179 496T176 393Q185 403 206 421T255
456T319 487T392 500Q430 500 462 488T519 453T556 397T570 321Q570 286 557 249T520 175T463 105T392 47T310 7T222 -8Q172 -8 140 3T89 28T62 54T53 70Q56 79 60 118T67 215T74 342T77 477Q77 535 75 574T70 639T61 679T50 702Q38 717 24 718L13 719ZM174 314Q172
297 171 273T170 225T171 182T173 158Q176 143 187 126T216 95T257 71T309 61Q372 61 413 105T455 240Q455 291 441 326T404 383T357 415T310 425Q281 425 262 417T227 397Q202 378 190 359T174 314Z" />
<glyph unicode="c" glyph-name="c" horiz-adv-x="447" d="M451 454Q449 448 440 436T417 410T390 384T364 365Q357 362 356 367T354 377Q354 385 346 397T322 420T285 440T239 448Q196 448 169 402T142 278Q142 231 156 194T196 131T258 92T336 78Q393 78 427
92T483 126Q484 126 484 127T486 128Q491 128 493 125T495 116Q495 112 493 110Q478 98 452 78T391 39T320 5T247 -9Q144 -9 87 51T29 215Q29 294 59 348T134 434T229 481T317 495Q348 495 372 491T414 480T441 466T451 454Z" />
<glyph unicode="d" glyph-name="d" horiz-adv-x="592" d="M411 80Q402 71 382 56T335 27T277 2T213 -9Q180 -9 147 6T88 49T45 118T29 208Q29 273 51 326T117 416T223 473T367 493Q381 493 394 493T418 492Q418 501 418 524T418 573T417 619T416 645Q412 685 403
701T364 717Q360 717 360 726T366 740Q374 745 384 747T414 750Q452 750 477 750T519 752T546 756T563 762Q568 763 571 760T576 751T577 740T571 734Q560 732 555 730T544 720Q539 713 535 683T527 609T520 512T515 404T512 299T510 210Q510 137 526 103T575 68Q587
68 601 72T628 81T651 92T667 102Q672 106 676 97T675 85Q663 78 638 65T581 36Q543 17 504 2T441 -13Q423 -13 417 -7T410 12Q410 16 410 25T410 45T411 65T411 80ZM398 114Q406 125 410 139T416 179Q418 200 418 230T418 284Q418 307 418 333T416 369Q414 386
402 401T371 427T327 444T273 451Q246 451 222 442T181 413T153 362T143 284Q143 237 156 199T192 132T247 89T317 73Q332 73 345 77T368 88T387 102T398 114Z" />
<glyph unicode="e" glyph-name="e" horiz-adv-x="464" d="M494 117Q483 105 460 84T405 42T332 6T247 -9Q206 -9 167 3T97 41T48 106T29 201Q29 246 35 278T51 335T73 377T99 409Q115 427 138 443T187 472T243 492T303 500Q357 500 387 482T418 432Q418 412 406
395Q416 398 431 405T463 419T491 433T508 442Q510 444 512 444T515 440Q515 427 510 419T498 405Q482 395 452 380T386 349T310 316T237 284T177 258T142 241Q142 207 155 178T193 126T250 92T324 79Q360 79 389 86T438 103T469 120T482 128Q486 128 490 125T494
117ZM142 270Q159 276 180 284T222 303T260 322T286 338Q304 351 304 382Q304 394 300 407T286 430T264 447T235 454Q221 454 205 445T175 414T152 357T142 270Z" />
<glyph unicode="f" glyph-name="f" horiz-adv-x="333" d="M196 5Q198 5 203 6T211 8Q217 8 218 0T216 -11Q208 -17 196 -25T170 -41T141 -58T117 -72Q111 -75 100 -81T77 -94T55 -105T42 -110Q37 -110 33 -105T28 -96Q28 -91 29 -91T33 -88Q39 -84 49 -78T65 -52Q69
-35 73 0T80 81T85 183T87 298Q87 320 87 340T86 377Q84 377 71 378T42 382T15 386T2 393Q2 395 2 399T9 411Q17 419 28 429T51 449T71 467T86 480Q87 510 87 534T90 579Q92 604 98 618T115 646Q127 660 162 681T245 726Q262 734 274 740T299 749T324 755T354 757Q398
757 429 748T478 723Q478 719 465 706T435 677T401 643T376 614Q373 609 367 611T363 617Q365 621 366 625T368 635Q368 662 341 682T272 702Q248 702 232 688T207 639Q199 607 196 565T190 456Q204 453 226 452T275 450Q292 450 312 450T352 451T389 453T418 458Q422
454 422 449Q408 428 378 415T314 393T245 381T188 378Q188 361 187 331T185 265T184 195T183 131Q183 108 183 86T185 47T188 19T196 5Z" />
<glyph unicode="g" glyph-name="g" horiz-adv-x="563" d="M693 438Q673 423 627 412T519 400Q507 400 493 400T470 399Q474 361 461 321T430 246T397 183T382 144Q382 128 396 113T431 83T476 53T521 20T556 -19T570 -65Q570 -101 543 -144T468 -224T358 -287T224
-312Q191 -312 153 -305T82 -284T28 -250T6 -201Q6 -185 30 -159T87 -106T150 -54T194 -14Q197 -14 201 -18T206 -27Q206 -28 206 -28T205 -30Q195 -38 181 -50T152 -76T128 -106T118 -139Q118 -160 134 -180T177 -217T238 -243T307 -253Q379 -253 416 -222T454
-133Q454 -109 441 -87T408 -46T365 -11T322 20T289 46T275 68Q275 77 280 88T293 111T305 132T311 147Q311 146 309 150Q302 143 289 136T259 123T222 113T182 109Q144 109 115 121T67 155T37 203T27 262Q27 308 40 341T74 397T118 434T160 459Q172 465 188 470T224
480T263 488T301 491Q364 491 403 477T454 452Q466 450 497 449T563 448T629 448T674 448Q679 448 684 448T694 449Q699 448 698 444T693 438ZM281 168Q295 168 309 174T334 194T353 233T361 295Q361 329 354 358T331 408T294 440T242 452Q199 452 169 420T139
327Q139 294 151 265T182 215T228 181T281 168Z" />
<glyph unicode="h" glyph-name="h" horiz-adv-x="622" d="M188 389Q208 407 233 426T285 462T343 489T404 500Q440 500 471 489T527 455T565 403T579 334Q579 257 553 193T491 80T420 -1T368 -43Q363 -46 358 -41T358 -30Q366 -24 382 -1T416 59T446 141T459 240Q459
284 449 318T420 375T379 410T328 422Q310 422 290 417T253 401Q235 390 218 374T193 341Q191 337 190 334T187 324T184 307T181 280Q178 251 177 224T175 158Q175 109 181 83T216 52Q219 52 223 52T232 54Q236 55 242 57Q245 57 246 54T248 48Q248 45 237 39T209
27T172 14T133 1Q114 -4 101 -8T82 -12Q52 -12 52 11Q52 16 57 30T65 73Q69 115 73 165T79 267T83 367T85 455Q85 527 83 577T78 648Q75 674 72 682T65 698Q60 707 53 710T39 715T28 716T23 717Q23 731 32 740T56 749Q85 749 116 750T173 753Q195 755 213 759T238
765Q246 766 246 763T247 750Q247 744 242 741T231 736T220 733T212 728Q208 722 204 691T197 613T191 507T187 390L188 389Z" />
<glyph unicode="i" glyph-name="i" horiz-adv-x="273" d="M187 174Q187 153 188 134T195 100T213 78T247 69Q258 69 272 71T298 78T320 86T332 92Q335 95 336 92T337 85T334 76T329 69Q319 64 294 51T235 24Q203 10 173 1T122 -9Q99 -9 86 5T73 40Q73 47 73 52T75
65Q76 75 78 101T83 161T88 227T90 285V320Q90 346 87 366T77 397Q72 404 65 408T46 413Q40 413 34 411T25 408Q23 408 19 414T19 423Q26 428 48 439T96 463Q124 477 150 487T187 498Q198 498 202 492T206 477V473Q206 463 203 441T197 387T190 313T187 222V174ZM147
694Q152 693 163 683T187 660T208 635T217 619Q217 614 205 604T178 584T148 565T127 557Q124 557 113 566T89 588T68 611T58 627Q58 632 71 642T99 664T129 684T147 694Z" />
<glyph unicode="j" glyph-name="j" horiz-adv-x="251" d="M92 320Q92 345 88 362T78 391Q72 403 63 408T44 413Q37 413 36 413T30 412Q25 412 23 417T23 424Q26 428 47 438Q59 444 80 454T124 474T165 491T190 498Q197 498 203 494T209 482Q209 476 207 470Q206
467 204 453T199 416T195 367T193 309Q191 211 190 140T184 18T173 -69T154 -130T125 -176T82 -219Q67 -232 51 -246T20 -271T-9 -289T-34 -297Q-45 -297 -49 -288T-54 -267Q-54 -260 -53 -256Q-49 -256 -44 -257T-33 -258Q-17 -258 -4 -254T21 -239T41 -208T58
-156Q65 -124 71 -81T82 12T89 115T92 222V320ZM151 694Q156 693 167 683T191 660T212 635T221 619Q221 614 209 604T182 584T152 565T131 557Q128 557 117 566T93 588T72 611T62 627Q62 632 75 642T103 664T133 684T151 694Z" />
<glyph unicode="k" glyph-name="k" horiz-adv-x="515" d="M167 231Q167 211 166 181T165 119Q165 83 176 68T205 52Q206 52 210 53T218 54T227 56T232 57Q234 57 236 54T238 48Q232 41 211 31T163 12T112 -5T75 -12Q61 -12 53 -4T45 8Q45 11 45 12T46 14T48 17T50
26Q53 39 56 59T61 110T66 184T70 288Q71 335 71 380T72 466T73 539T73 596Q73 644 68 671T57 706Q50 716 38 716T20 718Q19 727 21 734Q23 740 27 745T42 750Q60 750 84 750T134 752T185 756T229 763Q235 764 235 760T234 744Q233 738 229 737T219 735T209 735T202
730Q200 725 197 717T192 694Q189 674 186 641T181 566T176 480T171 393T168 315T167 256Q196 256 229 270T291 308T339 364T358 434Q358 463 339 463Q323 463 310 459T292 454Q277 454 275 462Q275 468 280 475T290 485Q311 485 337 487T391 492T443 500T485 507Q490
505 490 501Q490 492 474 462T430 396T367 326T295 275Q306 268 324 249T363 205T409 153T458 104T506 67T551 52Q566 52 574 55T592 63Q597 60 597 56Q597 48 590 41T556 25Q539 20 517 12T475 -4T439 -17T419 -21Q411 -19 394 -2T354 41T306 97T256 155T210 203T175
231H167Z" />
<glyph unicode="l" glyph-name="l" horiz-adv-x="275" d="M368 102Q374 98 374 92Q374 84 351 71Q327 57 288 38T209 5Q190 -2 175 -7T148 -12Q134 -12 114 -6T78 10Q66 18 59 22T52 32Q52 36 54 39T59 48Q60 51 61 56T62 66Q65 91 68 138T74 243T77 362T79 477Q79
542 79 582T76 646Q73 679 68 689T57 705Q50 711 44 712T32 714T23 715T19 717Q19 750 47 750Q68 750 96 750T144 749Q156 749 169 750T196 753T220 757T236 761Q240 762 242 758T245 748T244 737T237 731Q231 730 227 730T211 726Q206 724 202 714T195 681T189
622T183 530Q180 486 179 441T176 352T174 272T173 209Q173 180 173 151T179 104Q184 88 205 74T249 60Q267 60 286 65T321 77T349 91T368 102Z" />
<glyph unicode="m" glyph-name="m" horiz-adv-x="929" d="M966 87Q969 87 970 84T971 75Q971 70 969 69T965 65Q958 61 932 48T873 22T809 -2T761 -13Q747 -13 735 -7T724 12Q726 20 728 36T733 75Q735 104 737 142T740 226Q740 280 733 315T713 372T681 401T637
410Q614 410 598 403T570 386Q548 369 536 343T520 273Q519 262 519 251T518 227T517 198T516 160Q516 101 525 78T558 55Q566 55 568 55T576 57Q578 55 580 52Q583 47 579 41Q574 35 555 26T513 8T468 -6T435 -12Q421 -12 410 -9T398 0Q398 6 402 14Q405 19 408
38T413 87T418 156T420 242Q420 266 418 295T405 349T376 392T322 410Q302 410 286 405T259 391Q237 374 222 349T201 278Q199 257 197 235T195 183Q195 145 197 120T204 81T216 61T234 55Q245 55 249 57Q254 59 256 51T255 41Q251 37 234 29T195 11T150 -5T111
-12Q94 -12 85 -8T75 1Q75 2 77 7T80 17Q84 48 87 74T92 132T95 203T96 300Q96 355 79 381T42 407Q34 407 29 406T18 403Q12 402 12 409V416Q13 417 32 430T77 458T131 485T177 498Q189 498 197 491T206 465Q206 456 206 445T205 422T203 399T202 379Q216 392 237
413T286 453T344 486T411 500Q457 500 486 473T517 379Q533 394 556 415T607 455T668 487T733 500Q849 500 849 377Q849 357 847 331T842 277T837 220T835 169Q835 65 890 65Q899 65 910 67T932 73T952 80T965 87H966Z" />
<glyph unicode="n" glyph-name="n" horiz-adv-x="625" d="M193 264Q192 255 191 248T190 232T189 210T188 174Q188 138 190 115T198 79T210 60T229 55Q236 55 244 57Q246 57 247 52T247 44Q241 39 224 30T184 11T139 -5T99 -12Q85 -12 77 -9T69 0Q69 5 70 6T73
11Q75 16 76 23T79 41Q81 55 83 76T87 123T90 176T92 230Q92 241 92 257T90 300Q89 329 84 349T70 382T51 401T30 407Q25 407 20 407T10 406Q6 406 6 415Q6 417 7 418T17 425Q30 434 52 447T97 471T140 490T172 498Q201 498 201 465Q201 460 200 447T199 421T197
395T196 379Q217 399 241 420T293 458T352 487T416 498Q476 498 514 464T553 354Q553 334 551 307T545 251T540 194T537 144Q537 64 589 64Q599 64 611 67T635 75T656 84T668 92Q669 93 670 91T673 84T674 77T672 73Q664 68 638 54T579 26T514 0T463 -12Q440 -12
432 -1T423 22Q423 30 425 42T432 81Q436 110 439 149T443 233Q443 321 411 366T329 412Q298 412 274 400T233 368T206 321T193 264Z" />
<glyph unicode="o" glyph-name="o" horiz-adv-x="575" d="M429 80Q418 71 399 56T355 26T300 1T237 -10Q187 -10 148 7T83 54T43 124T29 209Q29 262 45 303T84 374T135 425T184 458Q194 464 209 471T243 484T283 494T328 499Q371 499 411 488T483 454T533 393T552
304Q552 262 537 225T500 159T459 110T429 80ZM316 64Q373 64 403 107T434 239Q434 284 422 322T387 390T334 435T269 452Q244 452 222 439T182 402T155 342T145 263Q145 216 159 179T198 117T252 78T316 64Z" />
<glyph unicode="p" glyph-name="p" horiz-adv-x="597" d="M411 46Q379 26 332 10T241 -6Q227 -6 210 -4T181 0Q180 -19 180 -39T179 -77T178 -112T177 -139Q177 -190 185 -208T212 -226Q221 -226 236 -224T264 -215Q266 -213 268 -219T271 -230Q271 -231 257 -235T222
-246T175 -260T127 -274T88 -285T67 -289Q61 -289 56 -288T51 -279Q51 -274 54 -273T60 -268Q65 -262 66 -246T69 -213Q72 -174 75 -121T82 -9T87 108T90 215Q90 283 85 321T69 378T47 401T20 406Q17 406 12 406T1 405Q-3 405 -3 412Q-3 417 -3 418T2 422Q7 425
20 432T51 447T89 465T126 482T157 495T175 500Q190 500 195 487T202 452Q202 443 202 424T200 379Q213 393 235 413T286 453T346 485T408 499Q451 499 484 484T540 443T573 385T585 318Q585 270 571 230T535 158T489 103T443 67L411 46ZM186 123Q189 112 202 101T235
80T282 64T339 57Q366 57 390 67T433 100T461 159T472 246Q472 282 462 314T433 370T388 407T331 421Q315 421 296 414T258 395T225 367T202 333Q197 321 194 296T189 240T187 178T186 123Z" />
<glyph unicode="q" glyph-name="q" horiz-adv-x="596" d="M606 -215Q587 -218 558 -228T499 -251T441 -274T397 -293Q389 -292 382 -287T375 -270Q380 -269 386 -263T393 -252Q396 -234 399 -194T405 -106T410 -8T412 79Q396 65 374 50T326 22T271 0T213 -9Q179
-9 146 6T87 49T45 117T29 208Q29 262 46 304T90 379T152 434T220 471T286 492T340 499Q359 499 380 496T420 489T455 480T481 473Q500 477 516 485T545 493Q549 493 552 488T552 479Q549 475 543 463T534 433Q526 391 521 332T513 209T509 87T507 -13Q507 -91
510 -130T519 -186T533 -203T553 -204Q566 -204 579 -201T602 -195Q608 -195 608 -208Q608 -213 606 -215ZM412 137Q412 155 412 184T413 244T414 303T415 349Q415 364 405 381T376 414T330 440T267 450Q244 450 222 440T183 409T154 356T143 280Q143 230 156 191T192
126T245 85T312 71Q351 71 379 89T412 137Z" />
<glyph unicode="r" glyph-name="r" horiz-adv-x="445" d="M494 425Q483 416 468 403T437 377T403 355T370 346Q356 346 345 352T325 366T306 380T287 387Q260 387 242 365T212 309T195 235T189 158Q189 127 191 108T199 77T212 61T233 57Q246 57 261 61Q264 62
265 57T267 49Q267 47 264 45T260 42Q238 33 215 23T177 5Q163 -1 144 -8T110 -15Q94 -15 84 -10T73 0Q73 5 75 9T80 24Q82 39 84 59T89 104T93 153T95 204Q95 260 92 299T79 362T55 396T15 407Q10 407 6 407T-2 406Q-8 406 -8 412Q-8 418 -2 421Q9 428 32 441T79
467T127 490T161 500Q174 500 183 492T196 470T203 441T205 408Q205 396 205 383T204 355Q249 421 285 457T353 494Q365 494 376 484T401 462T428 439T457 429Q470 429 476 432T486 437Q494 437 494 426V425Z" />
<glyph unicode="s" glyph-name="s" horiz-adv-x="466" d="M35 25Q27 20 20 9T11 -9Q10 -11 6 -12T-1 -14Q-10 -14 -10 -5Q-10 -2 -2 11Q4 21 17 42T43 86T68 127T85 152Q90 157 97 154T101 145Q99 143 98 140T97 130Q97 121 112 108T152 82T205 60T262 51Q295
51 314 70T334 120Q334 155 312 172T258 198T187 212T116 229T61 261T39 322Q39 353 60 385T117 442T199 483T295 499Q310 499 330 496T369 489T405 480T430 472Q432 472 429 464Q426 455 414 437T388 400T361 368T343 354Q342 354 337 354T330 356Q331 361 331
369Q331 404 300 424T208 444Q179 444 161 427T142 386Q142 347 164 328T219 300T290 285T361 270T416 238T438 175Q438 156 430 138T409 104T380 75T348 51Q333 41 314 31T273 11T228 -3T182 -9Q171 -9 147 -5T99 6T55 17T35 25Z" />
<glyph unicode="t" glyph-name="t" horiz-adv-x="469" d="M502 139Q504 141 505 139T507 132T507 122T503 114Q483 95 453 74T391 35Q382 30 366 22T331 7T291 -6T252 -12Q216 -12 184 2T128 40T91 99T77 173Q77 216 89 254T116 322T146 372T165 403Q146 404 131
404T101 405Q69 405 47 405T8 400Q0 398 -7 392T-19 383Q-21 385 -24 388T-28 396Q-28 398 -27 399Q-27 400 -14 410T18 435T61 467T106 500T143 525T164 538Q170 540 176 536T180 530Q177 528 171 523T167 513Q178 504 205 497T266 486T336 479T401 476Q444 476
470 478T513 485Q529 489 534 491Q535 491 538 488T541 481Q541 479 527 471T497 454Q488 449 476 441T449 426T418 412T387 405Q372 403 352 402T310 401T266 400T224 399Q221 394 215 383T202 353T191 312T186 262Q186 221 198 187T233 127T287 88T354 74Q375
74 394 79T431 92T464 109T490 128L502 139Z" />
<glyph unicode="u" glyph-name="u" horiz-adv-x="618" d="M19 413Q11 415 11 421T19 428Q22 429 38 435T76 449T123 466T167 481Q179 485 183 486T191 488Q194 488 198 486T200 478Q197 470 194 440T187 374T182 301T179 244Q179 164 213 121T319 77Q356 77 380
92T418 127Q427 140 430 184Q430 192 430 205T431 232T432 260T433 283Q434 329 431 368T420 427Q417 439 408 439Q402 439 397 439T390 447Q390 450 396 453T419 464Q435 470 454 476T493 486T527 491T549 490Q549 489 550 488T553 481Q555 475 551 444T541 341Q537
292 534 246T531 176Q531 129 548 102T592 74Q609 74 624 81T647 93Q655 93 655 86T652 77Q637 67 611 52T556 24T501 1T459 -9Q451 -9 445 1T434 27T428 58T426 86Q405 71 378 55T322 24T265 0T212 -9Q151 -9 112 23T73 108Q73 119 75 141T80 191T85 251T87 313Q87
359 73 383T35 411L19 413Z" />
<glyph unicode="v" glyph-name="v" horiz-adv-x="525" d="M285 111Q289 117 300 135T326 181T356 239T385 303T406 363T415 413Q415 429 411 438T400 453T382 460T361 462Q355 462 349 461T337 458Q331 456 328 459T324 465Q324 469 337 475T374 486T428 494T492
498Q539 498 539 467Q539 453 521 419T474 340T411 243T343 145T283 57T241 -5Q238 -9 219 -9Q211 -9 209 -7T204 2Q195 30 184 64T159 133T133 202T106 267Q71 351 47 384T1 418Q-5 418 -10 416T-21 412Q-23 412 -26 416T-28 423Q-27 424 -9 436T33 462T81 489T121
501Q144 501 163 459T208 341L285 111Z" />
<glyph unicode="w" glyph-name="w" horiz-adv-x="747" d="M488 7Q481 22 469 53T441 124T409 204T377 280Q360 251 336 210T288 127T244 51T215 -3Q212 -7 203 -8T188 -9Q177 -9 173 3Q167 29 158 69T136 154T109 246T79 329T49 389T19 412Q14 412 10 412T0 413Q-9
413 -12 412Q-16 412 -16 419Q-16 421 -13 426Q-7 430 14 441T58 465T102 488T129 498Q146 498 162 462T195 372T227 255T259 138Q268 151 279 170T303 214T329 265T356 319Q352 329 347 342T335 370T323 397T310 420Q304 429 296 430T288 437Q288 439 290 441Q318
457 351 473T418 495Q427 493 431 487T437 472Q441 460 449 436T468 379T491 311T516 239T539 172T561 119Q575 148 592 187T625 266T651 344T662 406Q662 456 617 456Q606 456 596 454T582 451Q579 451 577 454T574 463Q574 467 588 472T625 482T676 490T733 494Q755
494 769 488T788 470Q780 440 761 400T718 316T665 226T611 136T564 56T531 -6Q529 -8 519 -8T503 -8Q495 -8 494 -5T488 7Z" />
<glyph unicode="x" glyph-name="x" horiz-adv-x="525" d="M348 -13Q331 -10 312 11T274 60T241 120T219 173Q213 164 197 144T159 100T116 54T77 15Q53 -10 27 -35T-24 -79T-73 -111T-114 -123Q-126 -123 -132 -120T-142 -114Q-138 -109 -130 -93T-113 -56T-94
-10T-78 38Q-75 41 -73 41Q-70 41 -69 32T-65 11T-55 -10T-31 -20Q-5 -20 27 5T92 67T154 150T204 234Q196 264 179 296T140 356T90 401T35 419Q27 419 19 413T1 404Q-6 404 -6 413Q-6 416 14 429T62 458T114 484T151 496Q176 496 195 483T230 447T257 399T275
345Q294 373 318 401T368 451T423 486T479 500Q496 500 507 498T527 486Q526 481 518 461T499 419T479 378T467 360Q461 360 454 366T438 380T417 394T386 401Q351 401 328 371T296 282Q299 253 312 220T344 159T386 112T434 93Q469 93 491 105T528 132Q529 133
532 133Q538 133 538 125Q538 120 531 113T514 99T492 83T470 67Q442 44 410 21T348 -13Z" />
<glyph unicode="y" glyph-name="y" horiz-adv-x="535" d="M28 -297Q37 -287 55 -264T94 -212T138 -150T181 -88T215 -34T234 3Q218 45 200 92T163 185T124 273T85 346T49 397T17 416Q13 416 8 414T-1 409Q-4 407 -8 414T-8 423Q-4 426 15 438T59 463T105 488T138
499Q148 499 161 481T189 433T220 363T252 282T283 196T313 116Q326 136 346 173T386 252T418 335T432 404Q432 433 418 445T387 458Q374 458 367 458T350 455Q348 455 344 457T340 465Q340 470 362 476T413 487T470 495T509 499Q532 499 543 490T554 469Q548 445
529 407T482 323T425 229T366 137T316 60T283 10Q263 -21 245 -54T212 -121T186 -185T169 -241Q166 -256 174 -260T196 -263T226 -253T253 -237Q258 -233 259 -235T261 -243T259 -253T254 -261Q253 -261 231 -270T178 -289T113 -309T52 -318Q27 -318 27 -302Q27
-300 27 -299T28 -297Z" />
<glyph unicode="z" glyph-name="z" horiz-adv-x="423" d="M-29 13Q-7 26 15 49T59 100T103 161T148 225Q185 279 217 328T269 408H253Q216 408 173 411T94 414Q62 414 48 409T23 393Q20 393 15 395T9 403Q9 406 10 407Q22 415 42 434T82 472T117 505T135 520Q142
520 145 518T150 512T155 506T165 499Q177 494 198 489T245 481T301 475T361 472Q380 472 400 474T435 481Q436 481 438 477T440 470Q440 468 439 467T438 464Q410 443 376 394T282 271Q277 266 275 261T268 251Q224 195 191 156T132 88Q147 86 167 81T213 71T269
62T335 58Q372 58 395 64T439 90Q446 97 446 96T449 95Q454 95 454 90T453 82Q453 70 439 53T400 21T341 -6T264 -17Q238 -17 208 -14T145 -7T81 0T21 3Q4 3 -7 0T-34 -8Q-39 -8 -39 -2Q-39 -1 -37 7L-29 13Z" />
<glyph unicode="{" glyph-name="braceleft" horiz-adv-x="328" d="M237 -185Q213 -185 194 -182T162 -170T142 -141T135 -90V149Q135 192 110 218T23 244V273Q85 273 110 298T135 367V606Q135 638 142 657T162 685T194 698T237 701H305V669H278Q260 669 249 667T231
649T221 598T218 497V378Q218 343 205 321T176 285T142 266T118 260V256Q125 255 142 250T175 232T205 196T218 138V19Q218 -47 221 -82T230 -132T248 -150T278 -153H305V-185H237Z" />
<glyph unicode="|" glyph-name="bar" horiz-adv-x="272" d="M100 -250Q100 -240 100 -200T101 -107T101 8T101 122T101 215T101 263Q101 272 101 310T101 400T101 511T101 621T101 708T100 750H172Q171 740 171 702T171 612T170 502T170 393T170 305T170 258Q170
249 170 212T170 122T170 9T170 -104T171 -198T172 -250H100Z" />
<glyph unicode="}" glyph-name="braceright" horiz-adv-x="328" d="M23 -185V-153H50Q68 -153 79 -151T97 -133T107 -82T110 19V138Q110 173 123 195T152 231T185 250T210 256V260Q202 261 186 266T153 284T123 320T110 378V497Q110 563 107 598T98 648T80 666T50
669H23V701H91Q115 701 134 698T165 686T185 657T192 606V367Q192 323 217 298T305 273V244Q243 244 218 218T192 149V-90Q192 -122 185 -141T166 -169T134 -182T91 -185H23Z" />
<glyph unicode="~" glyph-name="asciitilde" horiz-adv-x="613" d="M570 297Q539 268 499 251T422 233Q392 233 364 241T308 258T252 276T193 284Q158 284 121 269T42 223V299Q58 313 77 325T117 346T157 360T194 365Q227 365 256 357T314 339T369 321T424 313Q459
313 494 328T570 373V297Z" />
</font>
</defs>
</svg>
